<?xml version="1.0" encoding="utf-8"?>
<!-- Generator: Adobe Illustrator 28.0.0, SVG Export Plug-In . SVG Version: 6.00 Build 0)  -->
<svg version="1.1" id="Layer_1" xmlns="http://www.w3.org/2000/svg" xmlns:xlink="http://www.w3.org/1999/xlink" x="0px" y="0px"
	 viewBox="0 0 78 75" style="enable-background:new 0 0 78 75;" xml:space="preserve">
<style type="text/css">
	.st0{clip-path:url(#SVGID_00000119098333380894438710000014930473178732626350_);}
	.st1{fill:#33657C;}
	.st2{fill:#4B8DA3;}
	.st3{fill:#205263;}
</style>
<g>
	<defs>
		<rect id="SVGID_1_" y="0" width="77.5" height="75"/>
	</defs>
	<clipPath id="SVGID_00000027598571038741846280000015517014233944212382_">
		<use xlink:href="#SVGID_1_"  style="overflow:visible;"/>
	</clipPath>
	<g style="clip-path:url(#SVGID_00000027598571038741846280000015517014233944212382_);">
		<path class="st1" d="M73.1,31.2h-9.4v37.5h-50V31.2H4.4c-0.4,0-0.8,0.1-1.2,0.2s-0.7,0.4-1,0.7s-0.5,0.6-0.7,1S1.2,34,1.2,34.4
			v9.4l5,1.2v15l-5,1.2v9.4c0,0.4,0.1,0.8,0.2,1.2c0.2,0.4,0.4,0.7,0.7,1s0.6,0.5,1,0.7c0.4,0.2,0.8,0.2,1.2,0.2h68.8
			c0.4,0,0.8-0.1,1.2-0.2c0.4-0.2,0.7-0.4,1-0.7s0.5-0.6,0.7-1c0.2-0.4,0.2-0.8,0.2-1.2V34.4c0-0.4-0.1-0.8-0.2-1.2
			c-0.2-0.4-0.4-0.7-0.7-1s-0.6-0.5-1-0.7C73.9,31.3,73.5,31.2,73.1,31.2z"/>
		<path class="st2" d="M56.2,1.2v7.5h7.5L56.2,1.2z"/>
		<path class="st2" d="M18.8,16.2h7.5v7.5h-7.5V16.2z"/>
		<path class="st2" d="M18.8,31.2h7.5v7.5h-7.5V31.2z"/>
		<path class="st2" d="M18.8,46.2h7.5v7.5h-7.5V46.2z"/>
		<path class="st3" d="M73.1,30H65V8.7c0-0.3-0.1-0.6-0.4-0.9l-7.5-7.5C56.9,0.1,56.6,0,56.2,0H13.8c-0.3,0-0.6,0.1-0.9,0.4
			c-0.2,0.2-0.4,0.6-0.4,0.9V30H4.4c-1.2,0-2.3,0.5-3.1,1.3C0.5,32.1,0,33.2,0,34.4v36.3c0,1.2,0.5,2.3,1.3,3.1
			C2.1,74.5,3.2,75,4.4,75h68.8c1.2,0,2.3-0.5,3.1-1.3c0.8-0.8,1.3-1.9,1.3-3.1V34.4c0-1.2-0.5-2.3-1.3-3.1
			C75.4,30.5,74.3,30,73.1,30z M57.5,4.3l3.2,3.2h-3.2V4.3z M15,2.5h40v6.2c0,0.3,0.1,0.6,0.4,0.9c0.2,0.2,0.6,0.4,0.9,0.4h6.2v57.5
			H15V2.5z M2.5,45.4L5,46v13l-2.5,0.6V45.4z M75,70.6c0,0.5-0.2,1-0.5,1.3c-0.4,0.4-0.8,0.5-1.3,0.5H4.4c-0.5,0-1-0.2-1.3-0.5
			c-0.4-0.4-0.5-0.8-0.5-1.3v-8.4l4.1-1c0.3-0.1,0.5-0.2,0.7-0.4c0.2-0.2,0.3-0.5,0.3-0.8V45c0-0.3-0.1-0.5-0.3-0.8
			c-0.2-0.2-0.4-0.4-0.7-0.4l-4.1-1v-8.4c0-0.5,0.2-1,0.6-1.3c0.4-0.4,0.8-0.5,1.3-0.5h8.1v35H10c-0.3,0-0.6,0.1-0.9,0.4
			c-0.2,0.2-0.4,0.6-0.4,0.9s0.1,0.6,0.4,0.9C9.4,69.9,9.7,70,10,70h57.5c0.3,0,0.6-0.1,0.9-0.4c0.2-0.2,0.4-0.6,0.4-0.9
			s-0.1-0.6-0.4-0.9c-0.2-0.2-0.6-0.4-0.9-0.4H65v-35h8.1c0.5,0,1,0.2,1.3,0.5c0.4,0.4,0.5,0.8,0.5,1.3V70.6z"/>
		<path class="st1" d="M72.5,45c-0.3,0-0.6,0.1-0.9,0.4c-0.2,0.2-0.4,0.6-0.4,0.9v12.5c0,0.3,0.1,0.6,0.4,0.9
			c0.2,0.2,0.6,0.4,0.9,0.4s0.6-0.1,0.9-0.4c0.2-0.2,0.4-0.6,0.4-0.9V46.2c0-0.3-0.1-0.6-0.4-0.9C73.1,45.1,72.8,45,72.5,45z"/>
		<path class="st1" d="M18.8,25h7.5c0.3,0,0.6-0.1,0.9-0.4s0.4-0.6,0.4-0.9v-7.5c0-0.3-0.1-0.6-0.4-0.9c-0.2-0.2-0.6-0.4-0.9-0.4
			h-7.5c-0.3,0-0.6,0.1-0.9,0.4c-0.2,0.2-0.4,0.6-0.4,0.9v7.5c0,0.3,0.1,0.6,0.4,0.9S18.4,25,18.8,25z M20,17.5h5v5h-5V17.5z"/>
		<path class="st1" d="M31.2,17.5h27.5c0.3,0,0.6-0.1,0.9-0.4c0.2-0.2,0.4-0.6,0.4-0.9c0-0.3-0.1-0.6-0.4-0.9
			c-0.2-0.2-0.6-0.4-0.9-0.4H31.2c-0.3,0-0.6,0.1-0.9,0.4c-0.2,0.2-0.4,0.6-0.4,0.9c0,0.3,0.1,0.6,0.4,0.9S30.9,17.5,31.2,17.5z"/>
		<path class="st1" d="M31.2,21.2h27.5c0.3,0,0.6-0.1,0.9-0.4c0.2-0.2,0.4-0.6,0.4-0.9s-0.1-0.6-0.4-0.9c-0.2-0.2-0.6-0.4-0.9-0.4
			H31.2c-0.3,0-0.6,0.1-0.9,0.4S30,19.7,30,20s0.1,0.6,0.4,0.9S30.9,21.2,31.2,21.2z"/>
		<path class="st1" d="M31.2,25h27.5c0.3,0,0.6-0.1,0.9-0.4c0.2-0.2,0.4-0.6,0.4-0.9s-0.1-0.6-0.4-0.9c-0.2-0.2-0.6-0.4-0.9-0.4
			H31.2c-0.3,0-0.6,0.1-0.9,0.4S30,23.4,30,23.7s0.1,0.6,0.4,0.9S30.9,25,31.2,25z"/>
		<path class="st1" d="M18.8,40h7.5c0.3,0,0.6-0.1,0.9-0.4c0.2-0.2,0.4-0.6,0.4-0.9v-7.5c0-0.3-0.1-0.6-0.4-0.9S26.6,30,26.2,30
			h-7.5c-0.3,0-0.6,0.1-0.9,0.4s-0.4,0.6-0.4,0.9v7.5c0,0.3,0.1,0.6,0.4,0.9C18.1,39.9,18.4,40,18.8,40z M20,32.5h5v5h-5V32.5z"/>
		<path class="st1" d="M31.2,32.5h27.5c0.3,0,0.6-0.1,0.9-0.4c0.2-0.2,0.4-0.6,0.4-0.9s-0.1-0.6-0.4-0.9c-0.2-0.2-0.6-0.4-0.9-0.4
			H31.2c-0.3,0-0.6,0.1-0.9,0.4S30,30.9,30,31.2s0.1,0.6,0.4,0.9C30.6,32.4,30.9,32.5,31.2,32.5z"/>
		<path class="st1" d="M31.2,36.2h27.5c0.3,0,0.6-0.1,0.9-0.4c0.2-0.2,0.4-0.6,0.4-0.9s-0.1-0.6-0.4-0.9c-0.2-0.2-0.6-0.4-0.9-0.4
			H31.2c-0.3,0-0.6,0.1-0.9,0.4C30.1,34.4,30,34.7,30,35s0.1,0.6,0.4,0.9C30.6,36.1,30.9,36.2,31.2,36.2z"/>
		<path class="st1" d="M31.2,40h27.5c0.3,0,0.6-0.1,0.9-0.4c0.2-0.2,0.4-0.6,0.4-0.9s-0.1-0.6-0.4-0.9c-0.2-0.2-0.6-0.4-0.9-0.4
			H31.2c-0.3,0-0.6,0.1-0.9,0.4c-0.2,0.2-0.4,0.6-0.4,0.9s0.1,0.6,0.4,0.9C30.6,39.9,30.9,40,31.2,40z"/>
		<path class="st1" d="M18.8,55h7.5c0.3,0,0.6-0.1,0.9-0.4c0.2-0.2,0.4-0.6,0.4-0.9v-7.5c0-0.3-0.1-0.6-0.4-0.9
			c-0.2-0.2-0.6-0.4-0.9-0.4h-7.5c-0.3,0-0.6,0.1-0.9,0.4c-0.2,0.2-0.4,0.6-0.4,0.9v7.5c0,0.3,0.1,0.6,0.4,0.9
			C18.1,54.9,18.4,55,18.8,55z M20,47.5h5v5h-5V47.5z"/>
		<path class="st1" d="M31.2,47.5h27.5c0.3,0,0.6-0.1,0.9-0.4c0.2-0.2,0.4-0.6,0.4-0.9s-0.1-0.6-0.4-0.9c-0.2-0.2-0.6-0.4-0.9-0.4
			H31.2c-0.3,0-0.6,0.1-0.9,0.4c-0.2,0.2-0.4,0.6-0.4,0.9s0.1,0.6,0.4,0.9C30.6,47.4,30.9,47.5,31.2,47.5z"/>
		<path class="st1" d="M31.2,51.2h27.5c0.3,0,0.6-0.1,0.9-0.4c0.2-0.2,0.4-0.6,0.4-0.9s-0.1-0.6-0.4-0.9c-0.2-0.2-0.6-0.4-0.9-0.4
			H31.2c-0.3,0-0.6,0.1-0.9,0.4C30.1,49.4,30,49.7,30,50s0.1,0.6,0.4,0.9C30.6,51.1,30.9,51.2,31.2,51.2z"/>
		<path class="st1" d="M31.2,55h27.5c0.3,0,0.6-0.1,0.9-0.4c0.2-0.2,0.4-0.6,0.4-0.9s-0.1-0.6-0.4-0.9c-0.2-0.2-0.6-0.4-0.9-0.4
			H31.2c-0.3,0-0.6,0.1-0.9,0.4c-0.2,0.2-0.4,0.6-0.4,0.9s0.1,0.6,0.4,0.9C30.6,54.9,30.9,55,31.2,55z"/>
	</g>
</g>
</svg>
