<?xml version="1.0" encoding="utf-8"?>
<!-- Generator: Adobe Illustrator 28.0.0, SVG Export Plug-In . SVG Version: 6.00 Build 0)  -->
<svg version="1.1" id="Layer_1" xmlns="http://www.w3.org/2000/svg" xmlns:xlink="http://www.w3.org/1999/xlink" x="0px" y="0px"
	 viewBox="0 0 75 75" style="enable-background:new 0 0 75 75;" xml:space="preserve">
<style type="text/css">
	.st0{clip-path:url(#SVGID_00000183941149982570539300000002051129037321518778_);}
	.st1{fill:#33657C;}
	.st2{fill:#3D89A3;}
	.st3{fill:#FFFFFF;}
</style>
<g>
	<defs>
		<rect id="SVGID_1_" y="0" width="75" height="75"/>
	</defs>
	<clipPath id="SVGID_00000182527580815201489410000000754195603724493959_">
		<use xlink:href="#SVGID_1_"  style="overflow:visible;"/>
	</clipPath>
	<g style="clip-path:url(#SVGID_00000182527580815201489410000000754195603724493959_);">
		<path class="st1" d="M70.8,26.6H53.2v-7.3h-3.6l24.2-7.3L37.5,1.2L1.2,12.1l24.2,7.3h-3.6v7.3H4.2c-0.4,0-0.8,0.1-1.2,0.2
			c-0.4,0.2-0.7,0.4-1,0.7s-0.5,0.6-0.7,1c-0.2,0.4-0.2,0.8-0.2,1.2v4.2h72.6v-4.2c0-0.4-0.1-0.8-0.2-1.2c-0.2-0.4-0.4-0.7-0.7-1
			s-0.6-0.5-1-0.7C71.6,26.7,71.2,26.6,70.8,26.6z"/>
		<path class="st2" d="M70.8,25.4h-3V15.2l6.4-1.9c0.2-0.1,0.5-0.2,0.6-0.4s0.2-0.5,0.2-0.7s-0.1-0.5-0.2-0.7s-0.4-0.4-0.6-0.4
			L37.8,0.1c-0.2-0.1-0.5-0.1-0.7,0L0.9,10.9c-0.2,0.1-0.5,0.2-0.6,0.4C0.1,11.6,0,11.8,0,12.1c0,0.3,0.1,0.5,0.2,0.7
			c0.2,0.2,0.4,0.4,0.6,0.4l19.7,5.9c0,0.1,0,0.1,0,0.2v6H4.2c-1.1,0-2.2,0.4-3,1.2c-0.8,0.8-1.2,1.9-1.2,3v41.1
			c0,1.1,0.4,2.2,1.2,3C2,74.5,3.1,75,4.2,75h66.5c1.1,0,2.2-0.4,3-1.2c0.8-0.8,1.2-1.9,1.2-3V29.6c0-1.1-0.4-2.2-1.2-3
			C73,25.9,71.9,25.4,70.8,25.4L70.8,25.4z M5.4,12.1l32.1-9.6l32.1,9.6l-32.1,9.6L5.4,12.1z M54.4,19.2l10.9-3.3v9.5H54.4v-6
			C54.4,19.3,54.4,19.2,54.4,19.2L54.4,19.2z M66.5,42.3c0.2,0,0.5,0.1,0.7,0.2c0.2,0.1,0.4,0.3,0.4,0.5c0.1,0.2,0.1,0.5,0.1,0.7
			s-0.2,0.5-0.3,0.6c-0.2,0.2-0.4,0.3-0.6,0.3c-0.2,0-0.5,0-0.7-0.1c-0.2-0.1-0.4-0.2-0.5-0.4c-0.1-0.2-0.2-0.4-0.2-0.7
			c0-0.2,0-0.3,0.1-0.5c0.1-0.1,0.1-0.3,0.3-0.4c0.1-0.1,0.2-0.2,0.4-0.3C66.2,42.4,66.4,42.3,66.5,42.3L66.5,42.3z M52,19.9v5.5H23
			v-5.5l14.2,4.3c0.2,0.1,0.5,0.1,0.7,0L52,19.9z M2.4,29.6c0-0.5,0.2-0.9,0.5-1.3c0.3-0.3,0.8-0.5,1.3-0.5h61.1v4.8H2.4V29.6z
			 M72.6,70.8c0,0.5-0.2,0.9-0.5,1.3c-0.3,0.3-0.8,0.5-1.3,0.5H4.2c-0.5,0-0.9-0.2-1.3-0.5c-0.3-0.3-0.5-0.8-0.5-1.3V35.1h62.9v5
			c-0.8,0.3-1.5,0.8-1.9,1.6c-0.4,0.7-0.6,1.6-0.4,2.4c0.1,0.8,0.6,1.6,1.2,2.2c0.7,0.6,1.5,0.9,2.3,0.9c0.9,0,1.7-0.3,2.3-0.9
			c0.7-0.6,1.1-1.3,1.2-2.2c0.1-0.8,0-1.7-0.4-2.4c-0.4-0.7-1.1-1.3-1.9-1.6v-5h4.8V70.8z M72.6,32.7h-4.8v-4.8h3
			c0.5,0,0.9,0.2,1.3,0.5c0.3,0.3,0.5,0.8,0.5,1.3V32.7z"/>
		<path class="st3" d="M4.8,31.5H6c0.3,0,0.6-0.1,0.9-0.4c0.2-0.2,0.4-0.5,0.4-0.9s-0.1-0.6-0.4-0.9C6.7,29.2,6.4,29,6,29H4.8
			c-0.3,0-0.6,0.1-0.9,0.4c-0.2,0.2-0.4,0.5-0.4,0.9s0.1,0.6,0.4,0.9C4.2,31.3,4.5,31.5,4.8,31.5z"/>
		<path class="st3" d="M9.7,31.5h1.2c0.2,0,0.3,0,0.5-0.1c0.1-0.1,0.3-0.1,0.4-0.3c0.1-0.1,0.2-0.2,0.3-0.4c0.1-0.1,0.1-0.3,0.1-0.5
			c0-0.2,0-0.3-0.1-0.5c-0.1-0.1-0.1-0.3-0.3-0.4c-0.1-0.1-0.2-0.2-0.4-0.3C11.2,29.1,11,29,10.9,29H9.7c-0.3,0-0.6,0.1-0.9,0.4
			c-0.2,0.2-0.4,0.5-0.4,0.9s0.1,0.6,0.4,0.9C9,31.3,9.4,31.5,9.7,31.5z"/>
		<path class="st3" d="M14.5,31.5h1.2c0.3,0,0.6-0.1,0.9-0.4c0.2-0.2,0.4-0.5,0.4-0.9s-0.1-0.6-0.4-0.9C16.4,29.2,16,29,15.7,29
			h-1.2c-0.2,0-0.3,0-0.5,0.1c-0.1,0.1-0.3,0.1-0.4,0.3c-0.1,0.1-0.2,0.2-0.3,0.4c-0.1,0.1-0.1,0.3-0.1,0.5c0,0.2,0,0.3,0.1,0.5
			c0.1,0.1,0.1,0.3,0.3,0.4c0.1,0.1,0.2,0.2,0.4,0.3C14.2,31.4,14.4,31.5,14.5,31.5z"/>
	</g>
</g>
</svg>
